<svg width="25" height="24" viewBox="0 0 25 24" fill="none" xmlns="http://www.w3.org/2000/svg">
<path d="M13.8601 0.843656C13.6092 0.328088 13.0789 0 12.4966 0C11.9143 0 11.3888 0.328088 11.1331 0.843656L8.08893 7.04452L1.29041 8.03816C0.722292 8.12253 0.248858 8.51623 0.0736874 9.05524C-0.101483 9.59424 0.0405469 10.1895 0.4477 10.5879L5.38088 15.4201L4.21624 22.2491C4.12155 22.8115 4.35827 23.3833 4.82697 23.7161C5.29567 24.0489 5.91586 24.0911 6.42717 23.8239L12.5013 20.6133L18.5755 23.8239C19.0868 24.0911 19.707 24.0536 20.1757 23.7161C20.6444 23.3786 20.8811 22.8115 20.7864 22.2491L19.6171 15.4201L24.5502 10.5879C24.9574 10.1895 25.1042 9.59424 24.9242 9.05524C24.7443 8.51623 24.2756 8.12253 23.7075 8.03816L16.9043 7.04452L13.8601 0.843656Z" fill="#FF5A30"/>
</svg>
