<svg width="17" height="15" viewBox="0 0 17 15" fill="none" xmlns="http://www.w3.org/2000/svg">
<path d="M17 7.49389C16.9941 6.83578 16.7367 6.20658 16.2836 5.74263L11.0743 0.363753C10.8468 0.130772 10.539 0 10.2182 0C9.89742 0 9.58965 0.130772 9.36214 0.363753C9.24833 0.480041 9.15799 0.618392 9.09635 0.770826C9.0347 0.923259 9.00296 1.08676 9.00296 1.25189C9.00296 1.41703 9.0347 1.58053 9.09635 1.73296C9.15799 1.88539 9.24833 2.02374 9.36214 2.14003L13.3571 6.24299H1.21429C0.892237 6.24299 0.583379 6.37478 0.355656 6.60937C0.127934 6.84396 0 7.16213 0 7.49389C0 7.82565 0.127934 8.14382 0.355656 8.37841C0.583379 8.613 0.892237 8.74479 1.21429 8.74479H13.3571L9.36214 12.8603C9.13349 13.0941 9.00439 13.412 9.00325 13.744C9.00212 14.0759 9.12903 14.3947 9.35607 14.6303C9.58312 14.8658 9.89169 14.9988 10.2139 15C10.5361 15.0012 10.8456 14.8704 11.0743 14.6365L16.2836 9.25766C16.7396 8.79064 16.9973 8.15634 17 7.49389Z" fill="white"/>
</svg>
