<!-- Generated by IcoMoon.io -->
<svg version="1.1" xmlns="http://www.w3.org/2000/svg" width="32" height="32" viewBox="0 0 32 32">
<title>Vector-1</title>
<path d="M20 8c0-4.412-3.588-8-8-8s-8 3.588-8 8c0 4.412 3.588 8 8 8s8-3.588 8-8zM12 13.333c-2.941 0-5.333-2.392-5.333-5.333s2.392-5.333 5.333-5.333c2.941 0 5.333 2.392 5.333 5.333s-2.392 5.333-5.333 5.333zM11.989 19.917c0.091 0.731-0.427 1.396-1.159 1.488-4.655 0.581-8.165 4.561-8.165 9.261 0 0.736-0.597 1.333-1.333 1.333s-1.333-0.597-1.333-1.333c0-6.041 4.515-11.16 10.501-11.907 0.723-0.092 1.396 0.427 1.488 1.159l0.001-0.001zM30.261 25.511l-1.299-0.749c0.221-0.663 0.371-1.359 0.371-2.096s-0.148-1.433-0.371-2.096l1.299-0.749c0.637-0.368 0.856-1.184 0.488-1.821-0.369-0.639-1.183-0.859-1.821-0.488l-1.297 0.749c-0.94-1.059-2.192-1.833-3.631-2.125v-1.468c0-0.736-0.597-1.333-1.333-1.333s-1.333 0.597-1.333 1.333v1.468c-1.439 0.293-2.691 1.068-3.631 2.125l-1.297-0.749c-0.64-0.369-1.453-0.151-1.821 0.488s-0.149 1.453 0.488 1.821l1.299 0.749c-0.221 0.663-0.371 1.359-0.371 2.096s0.148 1.433 0.371 2.096l-1.299 0.749c-0.637 0.368-0.856 1.184-0.488 1.821 0.248 0.428 0.695 0.667 1.156 0.667 0.225 0 0.455-0.057 0.665-0.179l1.297-0.749c0.94 1.059 2.192 1.833 3.631 2.125v1.468c0 0.736 0.597 1.333 1.333 1.333s1.333-0.597 1.333-1.333v-1.468c1.439-0.293 2.691-1.068 3.631-2.125l1.297 0.749c0.211 0.121 0.44 0.179 0.665 0.179 0.461 0 0.909-0.239 1.156-0.667 0.368-0.639 0.149-1.453-0.488-1.821zM22.667 26.665c-2.205 0-4-1.795-4-4s1.795-4 4-4c2.205 0 4 1.795 4 4s-1.795 4-4 4z"></path>
</svg>
