<!-- Generated by IcoMoon.io -->
<svg version="1.1" xmlns="http://www.w3.org/2000/svg" width="32" height="32" viewBox="0 0 32 32">
<title>Vector</title>
<path d="M20.121 21.329c8.761-0.044 11.879-4.684 11.879-8.663 0-2.236-1.583-4.107-3.685-4.559 0.181-0.516 0.339-0.989 0.445-1.348 0.471-1.591 0.165-3.272-0.836-4.612-1.021-1.364-2.583-2.148-4.285-2.148h-15.277c-1.703 0-3.265 0.784-4.287 2.149-1.001 1.34-1.305 3.021-0.835 4.611 0.107 0.359 0.263 0.832 0.445 1.348-2.103 0.452-3.685 2.323-3.685 4.559 0 3.979 3.119 8.619 11.879 8.663 0.075 0.403 0.121 0.813 0.121 1.231v4.107c0 2.435-2.048 2.656-2.667 2.667h-1.333c-0.737 0-1.333 0.596-1.333 1.333s0.596 1.333 1.333 1.333h16c0.737 0 1.333-0.596 1.333-1.333s-0.596-1.333-1.333-1.333h-1.323c-0.629-0.011-2.677-0.232-2.677-2.667v-4.107c0-0.417 0.047-0.828 0.121-1.231zM27.333 10.667c1.103 0 2 0.897 2 2 0 2.712-2.145 5.596-8.048 5.96 0.295-0.399 0.632-0.768 1.016-1.095 2.319-1.971 3.911-4.604 4.969-6.879 0.023 0 0.040 0.013 0.063 0.013zM2.667 12.667c0-1.103 0.897-2 2-2 0.023 0 0.041-0.012 0.063-0.013 1.059 2.275 2.649 4.907 4.969 6.879 0.384 0.327 0.721 0.695 1.016 1.095-5.903-0.364-8.048-3.248-8.048-5.96zM14.017 29.333c0.393-0.721 0.649-1.592 0.649-2.667v-4.107c0-2.735-1.181-5.307-3.241-7.059-2.359-2.005-4.463-5.556-5.628-9.496-0.229-0.777-0.080-1.6 0.415-2.259 0.512-0.687 1.296-1.080 2.149-1.080h15.276c0.853 0 1.637 0.393 2.149 1.079 0.492 0.66 0.643 1.483 0.415 2.259-1.167 3.943-3.271 7.492-5.628 9.497-2.060 1.751-3.241 4.324-3.241 7.059v4.107c0 1.075 0.255 1.945 0.649 2.667h-3.964zM13.055 13.017c-0.352-0.243-0.5-0.691-0.36-1.096l0.692-2.141-1.821-1.333c-0.436-0.32-0.531-0.932-0.211-1.368 0.184-0.251 0.477-0.4 0.788-0.4h2.241l0.681-2.124c0.172-0.516 0.729-0.793 1.245-0.621 0.293 0.097 0.524 0.328 0.621 0.621l0.68 2.124h2.241c0.54 0 0.979 0.437 0.979 0.979 0 0.313-0.149 0.607-0.401 0.791l-1.821 1.333 0.692 2.141c0.165 0.515-0.117 1.067-0.633 1.233-0.299 0.096-0.625 0.043-0.879-0.143l-1.791-1.317-1.792 1.316c-0.341 0.255-0.808 0.256-1.152 0.005z"></path>
</svg>
